<svg xmlns="http://www.w3.org/2000/svg" viewBox="0 0 256 256" role="img" aria-labelledby="title desc">
  <title id="title">Pipelantic logo</title>
  <desc id="desc">A compass rose crossed by a three-node pipeline route.</desc>
  <defs>
    <linearGradient id="route" x1="0" y1="1" x2="1" y2="0">
      <stop offset="0" stop-color="#27d3e2"/>
      <stop offset="1" stop-color="#63e6be"/>
    </linearGradient>
  </defs>
  <circle cx="128" cy="128" r="100" fill="#071a2b" stroke="#0d3b5e" stroke-width="12"/>
  <path d="M128 20 145 91 128 80 111 91Z" fill="#d6a84b"/>
  <path d="m128 236-17-71 17 11 17-11Z" fill="#0d3b5e"/>
  <path d="m20 128 71-17-11 17 11 17Z" fill="#0d3b5e"/>
  <path d="m236 128-71 17 11-17-11-17Z" fill="#0d3b5e"/>
  <path d="M82 187V108c0-22 17-39 39-39h22c22 0 39 17 39 39v12"
        fill="none" stroke="url(#route)" stroke-width="16" stroke-linecap="round"/>
  <path d="m166 111 17 17 17-17" fill="none" stroke="#63e6be" stroke-width="13"
        stroke-linecap="round" stroke-linejoin="round"/>
  <g fill="#27d3e2" stroke="#071a2b" stroke-width="8">
    <circle cx="82" cy="187" r="18"/>
    <circle cx="82" cy="108" r="18"/>
    <circle cx="143" cy="69" r="18"/>
  </g>
</svg>
